<svg data-cached="true" xmlns="http://www.w3.org/2000/svg" width="580" height="580" viewBox="0 0 580 580" preserveAspectRatio="xMidYMid meet"><svg id="__background" x="0" y="0" width="580" height="580" preserveAspectRatio="xMidYMid meet"><rect x="0" y="0" width="580" height="580" fill="#ffffff" stroke="none" stroke-width="0px"/></svg><g id="__padding" transform="translate(80 80)"><svg id="data" x="0" y="0" width="420" height="420" viewBox="0 0 900 900" preserveAspectRatio="xMinYMid meet"><path d="M0 0L140 0L140 140L0 140ZM160 0L180 0L180 40L200 40L200 60L160 60ZM200 0L260 0L260 40L200 40ZM280 0L340 0L340 20L360 20L360 0L380 0L380 20L400 20L400 40L360 40L360 60L340 60L340 40L320 40L320 20L300 20L300 40L280 40ZM400 0L480 0L480 20L520 20L520 0L580 0L580 80L560 80L560 100L540 100L540 60L520 60L520 40L480 40L480 80L520 80L520 100L500 100L500 160L560 160L560 120L580 120L580 140L600 140L600 160L580 160L580 180L600 180L600 160L620 160L620 220L580 220L580 200L480 200L480 180L400 180L400 200L380 200L380 220L340 220L340 180L360 180L360 160L340 160L340 180L320 180L320 160L300 160L300 140L320 140L320 120L340 120L340 140L360 140L360 120L340 120L340 80L360 80L360 100L380 100L380 160L400 160L400 100L380 100L380 80L360 80L360 60L400 60L400 80L460 80L460 60L440 60L440 40L460 40L460 20L440 20L440 40L420 40L420 20L400 20ZM600 0L620 0L620 20L600 20ZM660 0L680 0L680 80L620 80L620 100L640 100L640 120L620 120L620 140L600 140L600 40L620 40L620 60L660 60L660 40L640 40L640 20L660 20ZM720 0L740 0L740 20L720 20ZM760 0L900 0L900 140L760 140ZM20 20L20 120L120 120L120 20ZM540 20L540 40L560 40L560 20ZM700 20L720 20L720 60L740 60L740 100L680 100L680 80L700 80ZM780 20L780 120L880 120L880 20ZM40 40L100 40L100 100L40 100ZM260 40L280 40L280 60L260 60ZM300 40L320 40L320 120L300 120L300 140L280 140L280 120L260 120L260 140L240 140L240 100L220 100L220 80L240 80L240 60L260 60L260 100L280 100L280 80L300 80ZM800 40L860 40L860 100L800 100ZM200 60L220 60L220 80L200 80ZM160 80L180 80L180 100L160 100ZM200 100L220 100L220 140L200 140ZM420 100L420 160L480 160L480 100ZM660 100L680 100L680 120L660 120ZM160 120L180 120L180 140L160 140ZM440 120L460 120L460 140L440 140ZM520 120L540 120L540 140L520 140ZM640 120L660 120L660 140L640 140ZM680 120L700 120L700 140L680 140ZM720 120L740 120L740 160L700 160L700 140L720 140ZM220 140L240 140L240 180L220 180ZM620 140L640 140L640 160L620 160ZM660 140L680 140L680 160L700 160L700 260L680 260L680 220L660 220L660 260L640 260L640 280L660 280L660 260L680 260L680 280L700 280L700 300L680 300L680 320L660 320L660 300L620 300L620 280L560 280L560 320L540 320L540 340L520 340L520 320L500 320L500 340L460 340L460 320L440 320L440 280L480 280L480 260L500 260L500 300L520 300L520 260L540 260L540 240L560 240L560 220L580 220L580 260L620 260L620 220L640 220L640 200L660 200ZM0 160L20 160L20 180L0 180ZM60 160L180 160L180 180L160 180L160 200L140 200L140 180L120 180L120 200L100 200L100 180L60 180ZM280 160L300 160L300 200L320 200L320 260L260 260L260 240L240 240L240 260L200 260L200 240L220 240L220 200L240 200L240 220L280 220L280 240L300 240L300 220L280 220L280 200L260 200L260 180L280 180ZM740 160L760 160L760 180L740 180ZM800 160L820 160L820 180L800 180ZM840 160L900 160L900 180L880 180L880 200L900 200L900 220L860 220L860 180L840 180ZM20 180L40 180L40 200L20 200ZM720 180L740 180L740 200L720 200ZM760 180L800 180L800 240L780 240L780 200L760 200ZM820 180L840 180L840 200L820 200ZM0 200L20 200L20 240L0 240ZM40 200L60 200L60 220L40 220ZM80 200L100 200L100 220L80 220ZM120 200L140 200L140 220L120 220ZM400 200L440 200L440 220L480 220L480 240L440 240L440 260L420 260L420 240L400 240L400 260L340 260L340 240L380 240L380 220L400 220ZM740 200L760 200L760 260L740 260L740 280L760 280L760 300L800 300L800 320L760 320L760 360L720 360L720 340L740 340L740 320L720 320L720 280L700 280L700 260L720 260L720 220L740 220ZM60 220L80 220L80 260L40 260L40 240L60 240ZM160 220L200 220L200 240L160 240ZM500 220L520 220L520 260L500 260ZM840 220L860 220L860 240L840 240ZM100 240L160 240L160 280L180 280L180 300L160 300L160 320L140 320L140 300L120 300L120 320L140 320L140 340L120 340L120 360L100 360L100 400L180 400L180 440L220 440L220 420L240 420L240 380L220 380L220 320L200 320L200 280L220 280L220 300L240 300L240 320L260 320L260 340L300 340L300 360L280 360L280 380L300 380L300 360L320 360L320 400L260 400L260 460L320 460L320 480L280 480L280 500L260 500L260 480L240 480L240 540L180 540L180 520L200 520L200 500L220 500L220 460L200 460L200 500L160 500L160 520L140 520L140 500L120 500L120 520L140 520L140 540L100 540L100 500L80 500L80 480L60 480L60 540L40 540L40 560L60 560L60 580L40 580L40 620L20 620L20 580L0 580L0 540L20 540L20 480L40 480L40 440L60 440L60 460L80 460L80 420L60 420L60 400L80 400L80 380L60 380L60 340L20 340L20 360L40 360L40 380L60 380L60 400L20 400L20 380L0 380L0 320L100 320L100 280L140 280L140 260L100 260ZM800 240L840 240L840 260L820 260L820 280L760 280L760 260L800 260ZM860 240L880 240L880 280L840 280L840 260L860 260ZM0 260L40 260L40 280L20 280L20 300L0 300ZM240 260L260 260L260 300L240 300ZM320 260L340 260L340 280L320 280ZM60 280L80 280L80 300L60 300ZM340 280L420 280L420 340L400 340L400 360L360 360L360 300L340 300ZM820 280L840 280L840 300L900 300L900 320L840 320L840 340L820 340ZM280 300L320 300L320 340L300 340L300 320L280 320ZM580 300L600 300L600 320L580 320ZM160 320L180 320L180 340L200 340L200 380L220 380L220 420L200 420L200 400L180 400L180 360L160 360L160 380L120 380L120 360L140 360L140 340L160 340ZM620 320L660 320L660 340L700 340L700 360L680 360L680 380L660 380L660 360L640 360L640 340L620 340ZM700 320L720 320L720 340L700 340ZM320 340L340 340L340 360L320 360ZM420 340L460 340L460 360L440 360L440 400L500 400L500 440L520 440L520 420L560 420L560 400L600 400L600 420L640 420L640 440L580 440L580 460L500 460L500 500L480 500L480 520L460 520L460 560L380 560L380 580L360 580L360 600L320 600L320 560L340 560L340 520L360 520L360 500L380 500L380 520L400 520L400 540L440 540L440 500L380 500L380 480L400 480L400 460L380 460L380 440L400 440L400 380L420 380ZM560 340L580 340L580 360L600 360L600 380L560 380L560 400L500 400L500 380L540 380L540 360L560 360ZM600 340L620 340L620 360L600 360ZM780 340L800 340L800 360L820 360L820 380L780 380L780 400L820 400L820 380L840 380L840 340L900 340L900 400L880 400L880 360L860 360L860 400L840 400L840 420L860 420L860 480L840 480L840 460L820 460L820 500L800 500L800 520L780 520L780 500L760 500L760 520L740 520L740 500L720 500L720 480L700 480L700 460L720 460L720 440L700 440L700 460L680 460L680 440L660 440L660 420L700 420L700 380L720 380L720 400L740 400L740 380L760 380L760 360L780 360ZM480 360L500 360L500 380L480 380ZM340 380L360 380L360 400L380 400L380 420L360 420L360 440L340 440L340 460L320 460L320 420L340 420ZM600 380L640 380L640 400L600 400ZM0 420L20 420L20 460L0 460ZM100 420L100 480L160 480L160 420ZM420 420L420 480L480 480L480 420ZM740 420L740 480L800 480L800 420ZM120 440L140 440L140 460L120 460ZM440 440L460 440L460 460L440 460ZM640 440L660 440L660 460L680 460L680 480L660 480L660 500L680 500L680 580L700 580L700 600L720 600L720 640L700 640L700 620L680 620L680 600L660 600L660 580L620 580L620 600L600 600L600 580L580 580L580 500L560 500L560 480L580 480L580 460L640 460ZM760 440L780 440L780 460L760 460ZM880 440L900 440L900 460L880 460ZM340 460L360 460L360 480L340 480ZM600 480L600 500L620 500L620 520L640 520L640 500L620 500L620 480ZM880 480L900 480L900 500L880 500ZM300 500L340 500L340 520L320 520L320 540L280 540L280 520L300 520ZM520 500L540 500L540 560L520 560L520 540L500 540L500 520L520 520ZM700 500L720 500L720 540L740 540L740 560L720 560L720 580L700 580ZM820 500L880 500L880 520L860 520L860 540L880 540L880 580L860 580L860 560L840 560L840 540L820 540L820 560L840 560L840 620L880 620L880 640L820 640L820 620L760 620L760 660L780 660L780 640L800 640L800 660L860 660L860 680L820 680L820 720L840 720L840 740L860 740L860 720L880 720L880 760L860 760L860 780L880 780L880 820L860 820L860 800L820 800L820 880L840 880L840 900L800 900L800 840L780 840L780 820L760 820L760 840L780 840L780 880L760 880L760 860L740 860L740 880L720 880L720 900L700 900L700 840L740 840L740 820L720 820L720 800L700 800L700 840L660 840L660 820L680 820L680 780L700 780L700 740L660 740L660 820L640 820L640 840L660 840L660 860L640 860L640 880L620 880L620 840L600 840L600 820L580 820L580 800L600 800L600 780L620 780L620 800L640 800L640 720L580 720L580 740L560 740L560 700L580 700L580 660L560 660L560 640L580 640L580 600L600 600L600 660L620 660L620 620L640 620L640 680L600 680L600 700L640 700L640 680L660 680L660 660L680 660L680 640L700 640L700 720L720 720L720 660L740 660L740 600L760 600L760 580L800 580L800 520L820 520ZM60 540L80 540L80 560L60 560ZM140 540L160 540L160 560L140 560ZM240 540L280 540L280 560L240 560ZM480 540L500 540L500 560L520 560L520 600L500 600L500 580L480 580ZM600 540L600 560L620 560L620 540ZM120 560L140 560L140 580L120 580ZM220 560L240 560L240 580L220 580ZM80 580L120 580L120 600L140 600L140 620L100 620L100 600L80 600ZM160 580L200 580L200 600L240 600L240 640L220 640L220 620L180 620L180 600L160 600ZM240 580L260 580L260 600L240 600ZM420 580L440 580L440 600L460 600L460 640L480 640L480 600L500 600L500 620L560 620L560 640L500 640L500 660L540 660L540 720L520 720L520 740L500 740L500 760L520 760L520 860L540 860L540 900L520 900L520 880L500 880L500 820L440 820L440 840L480 840L480 860L460 860L460 880L420 880L420 820L400 820L400 740L380 740L380 700L400 700L400 680L420 680L420 720L480 720L480 700L520 700L520 680L480 680L480 660L440 660L440 680L420 680L420 660L380 660L380 620L360 620L360 600L400 600L400 620L420 620L420 640L440 640L440 620L420 620ZM720 580L740 580L740 600L720 600ZM880 580L900 580L900 620L880 620ZM260 600L300 600L300 620L280 620L280 660L260 660ZM640 600L660 600L660 620L640 620ZM300 620L320 620L320 640L360 640L360 660L380 660L380 680L360 680L360 720L340 720L340 740L300 740L300 760L380 760L380 800L360 800L360 780L340 780L340 800L360 800L360 860L380 860L380 880L360 880L360 900L320 900L320 880L340 880L340 860L280 860L280 820L300 820L300 840L320 840L320 800L300 800L300 780L280 780L280 740L260 740L260 780L240 780L240 740L220 740L220 720L240 720L240 680L280 680L280 720L300 720L300 680L340 680L340 660L300 660ZM20 640L80 640L80 660L60 660L60 680L40 680L40 660L20 660ZM100 640L180 640L180 660L240 660L240 680L220 680L220 720L200 720L200 680L180 680L180 720L140 720L140 700L160 700L160 660L100 660ZM880 660L900 660L900 720L880 720L880 700L860 700L860 680L880 680ZM80 680L100 680L100 740L60 740L60 720L20 720L20 700L80 700ZM120 680L140 680L140 700L120 700ZM440 680L480 680L480 700L440 700ZM660 700L660 720L680 720L680 700ZM740 700L740 720L780 720L780 700ZM840 700L860 700L860 720L840 720ZM0 720L20 720L20 740L0 740ZM120 720L140 720L140 740L120 740ZM180 720L200 720L200 740L180 740ZM160 740L180 740L180 760L200 760L200 780L180 780L180 820L220 820L220 840L240 840L240 820L260 820L260 860L240 860L240 880L300 880L300 900L200 900L200 860L180 860L180 840L160 840ZM200 740L220 740L220 760L200 760ZM420 740L420 800L480 800L480 740ZM600 740L620 740L620 760L600 760ZM740 740L740 800L800 800L800 740ZM0 760L140 760L140 900L0 900ZM440 760L460 760L460 780L440 780ZM560 760L600 760L600 780L560 780ZM760 760L780 760L780 780L760 780ZM820 760L820 780L840 780L840 760ZM20 780L20 880L120 880L120 780ZM200 780L220 780L220 800L200 800ZM260 780L280 780L280 800L260 800ZM40 800L100 800L100 860L40 860ZM220 800L240 800L240 820L220 820ZM540 820L560 820L560 840L540 840ZM880 820L900 820L900 880L840 880L840 860L880 860ZM380 840L400 840L400 860L380 860ZM560 840L580 840L580 880L620 880L620 900L560 900ZM160 880L180 880L180 900L160 900ZM460 880L500 880L500 900L460 900Z" fill="#000000" fill-rule="evenodd"/></svg></g></svg>